# xmcd CD database file
#
# Track frame offsets:
#	150
#	16242
#	32472
#	46832
#	61372
#	72675
#	82352
#	94104
#	107165
#	121577
#	134080
#	145862
#
# Disc length: 2196 seconds
#
# Revision: 0
# Processed by: cddbd v1.5.1PL0 Copyright (c) Steve Scherf et al.
# Submitted via: CDex 1.40Beta6
#
DISCID=a908920c
DTITLE=Kiowa Tiapiah Society Of Carnegie Oklahoma - Kiowa Gourd Dance Vol 1
DYEAR=1975
DGENRE=Native American
TTITLE0=Tai-pe-go Starting Song
TTITLE1=Gourd Dance Song
TTITLE2=Gourd Dance Song
TTITLE3=Gourd Dance Song
TTITLE4=Gourd Dance Song
TTITLE5=Chief's Song
TTITLE6=Gourd Dance Song (Red Wolf)
TTITLE7=Gourd Dance Song
TTITLE8=Gourd Dance Song
TTITLE9=Gourd Dance Song
TTITLE10=Gourd Dance Song
TTITLE11=Gourd Dance Song
EXTD=
EXTT0=
EXTT1=
EXTT2=
EXTT3=
EXTT4=
EXTT5=
EXTT6=
EXTT7=
EXTT8=
EXTT9=
EXTT10=
EXTT11=
PLAYORDER=
